<svg id="Layer_1" data-name="Layer 1" xmlns="http://www.w3.org/2000/svg" viewBox="0 0 215 175">
    <defs>
        <style>
          .cls-1{fill:#fff}.cls-2{fill:#969614}.cls-3{fill:#0096a5}.cls-4{fill:red}.cls-8{letter-spacing:.05em}
        </style>
    </defs>
    <path class="cls-1" d="M56.55 111.98h8.93v39.24h-8.93z"/>
    <path class="cls-2" d="M29.34 134.87L34.27 121l4.92 13.85zM45 151.22h9.49L39.54 112H29l-14.89 39.22h9.45l2.84-8h15.78z"/>
    <path class="cls-3" d="M125 85.22V73.85h6.35c4.46 0 7.56 1.12 7.56 5.69s-3.3 5.68-8.32 5.68zm23.61 20l-8.11-14.01c5.23-2 7.57-6 7.57-11.77 0-7.92-3.91-13.4-16.7-13.4h-15.28v39.23H125V92.74h7.51l6.49 12.53z"/>
    <path class="cls-2" d="M88.88 88.93l4.93-13.86 4.92 13.86zm15.69 16.34h9.49L99.08 66H88.53l-14.88 39.27h9.45l2.84-8h15.78z"/>
    <path class="cls-1" d="M189.28 20.09v15.59h-16.19V20.09h-8.93v39.24h8.93V43.85h16.19v15.48h8.94V20.09h-8.94z"/>
    <path class="cls-4" d="M78.58 66.04H46.7v8.12h11.57v31.12h8.79V74.16h11.52v-8.12z"/>
    <path class="cls-1" d="M14.72 98.47l6.6-5.63c3 3.45 6.5 5.28 10.1 5.28 3.3 0 5.84-1.68 5.84-3.81 0-6.55-20.26-5.13-20.26-17.87C17 69.74 22.59 65 31.58 65a19.16 19.16 0 0 1 14 5.48L39.34 76c-2.69-2-4.77-3.4-8-3.4s-4.92 1.93-4.92 3.45c0 5.68 20.1 4.36 20.1 17.51 0 7.67-6.8 12.49-15.38 12.49-6.5 0-12.08-2.9-16.4-7.62"/>
    <path class="cls-4" d="M161.72 20.09h-31.88v8.13h11.58v31.11h8.78V28.22h11.52v-8.13z"/>
    <path class="cls-1" d="M45.33 20.09v25.28L26 20.09h-8.74v39.24h8.68V34.26l19.29 25.07H54V20.09z"/>
    <path class="cls-3" d="M105.53 39.28V27.91h6.35c4.46 0 7.56 1.12 7.56 5.69s-3.3 5.68-8.33 5.68zm23.6 20L121 45.27c5.23-2 7.57-6 7.57-11.78 0-7.91-3.91-13.4-16.7-13.4H96.6v39.24h8.93V46.79h7.51l6.45 12.59z"/>
    <path class="cls-1" d="M75.28 19.18C63.55 19.18 56 27.81 56 39.69s7.87 20.55 19.24 20.55c11.72 0 19.14-8.73 19.14-20.55.04-12.08-7.68-20.51-19.1-20.51zm0 32.84C68.43 52 65 46.64 65 39.69S68.38 27.3 75.28 27.3c6.55 0 10.25 5.13 10.25 12.39 0 7-3.4 12.31-10.25 12.31z"/>
    <text transform="translate(74.85 128.86)" font-size="9.5" font-family="Halcyon-Medium,Halcyon" letter-spacing=".05em" fill="#fff">
    M<tspan x="8.21" y="0" letter-spacing=".03em">A</tspan><tspan x="14.93" y="0">CHINE INTELLIGENCE </tspan><tspan><tspan x="0" y="11">C</tspan><tspan class="cls-8" x="6.89" y="11">ONFERENCE</tspan></tspan><tspan x="0" y="22">FOR DEVE</tspan><tspan x="48.33" y="22">L</tspan><tspan class="cls-8" x="54.07" y="22">OPERS</tspan>
    </text>
</svg>
