<svg xmlns="http://www.w3.org/2000/svg" width="210" height="95">
  <path fill="#FFF" fill-rule="evenodd" d="M60.8516 38.0901l3.012-.294v-12.763h-3.012v13.057zm-7.796.762l4.865-.475v-13.344h-4.865v13.819zm13.746-13.819v12.474l.15-.011.847-.082v-12.381h-.997zm-37.373 12.759l3.015.296v-13.055h-3.015v12.759zm14.285 1.397l2.935.287 2.93-.287v-14.156h-5.865v14.156zm-18.144-1.775l.922.091v-12.472h-.922v12.381zm9.804.958l4.864.477v-13.816h-4.864v13.339zm25.478 29.8928h3.012v-12.76l-3.012-.291v13.051zm-7.796 0h4.865v-13.338l-4.865-.475v13.813zm14.743 0v-12.374l-.847-.085-.15-.012v12.471h.997zm-38.37 0h3.015v-13.047l-3.015.292v12.755zm14.285 0h5.865v-14.15l-2.93-.285-2.935.285v14.15zm-18.144 0h.922v-12.466l-.922.092v12.374zm9.804 0h4.864v-13.81l-4.864.477v13.333zM66.255 52.852h2.009V40.455h-2.009v12.397zm-5.864 0h3.939V40.455h-3.939v12.397zm-7.881 0h5.949V40.455H52.51v12.397zm-9.804 0h7.884V40.455h-7.884v12.397zm-7.871 0h5.939V40.455h-5.939v12.397zm-5.869 0h3.942V40.455h-3.942v12.397zm-3.934 0h2.008V40.455h-2.008v12.397zm136.164-22.783h3.7v-5.036h-3.7v5.036zm9.549 0h3.699v-5.036h-3.699v5.036zm9.069-5.036v28.029c0 7.165-4.622 11.618-12.06 11.618-7.358 0-11.93-4.404-11.93-11.493V25.033h-4.904v28.154c0 9.501 6.788 15.888 16.896 15.888 10.111 0 16.903-6.387 16.903-15.888V25.033h-4.905zM76.141 29.119h14.141V68.32h4.905V29.119h14.139v-4.086H76.141v4.086zm37.387 0h14.143V68.32h4.905V29.119h14.14v-4.086h-33.188v4.086z"/>
</svg>
