<svg xmlns="http://www.w3.org/2000/svg" width="220" height="116">
  <g stroke="null">
    <path fill="#ffffff" d="M69.609018 13.200001c-9.5 0-16.1 6.3-16.8 15.4-.1.4.1.9.4 1.3.3.4.8.7 1.3.7h.1c.9 0 1.7-.8 1.8-1.8.7-7.2 5.7-12.1 13.1-12.1 8 0 13.2 5.6 13.2 14.2 0 8.9-5.3 14.9-13.2 14.9-7.5 0-12.5-4.9-13.2-12.5-.1-1-.9-1.7-1.8-1.7h-.2c-.5 0-1 .3-1.3.7-.3.4-.4.8-.4 1.2.6 9.3 7.3 15.9 16.9 15.9 10.1 0 16.9-7.4 16.9-18.5.2-10.7-6.5-17.7-16.8-17.7zm27.6.7c-1 0-1.8.8-1.8 1.9v31.9c0 1 .8 1.9 1.8 1.9s1.8-.8 1.8-1.9v-32c0-1-.8-1.8-1.8-1.8zm17.5 1c-.4-.9-1.6-1.4-2.5-1l-10.7 4.8c-.5.2-.8.6-1 1-.2.5-.2 1 0 1.4.3.7 1 1.1 1.7 1.1.3 0 .5-.1.8-.2l10.7-4.8c.5-.2.8-.6 1-1 .3-.4.2-.9 0-1.3zm-93.5 6.1c-1-.3-2.1.3-2.3 1.2l-5.7 17.1-.7 2.7-.8-2.8-8.1-24.1c-.1-.8-.9-1.4-1.8-1.4-.2 0-.4 0-.5.1-.5.1-.9.4-1.1.9-.2.4-.3 1-.1 1.4l10.7 31.7c.2.8.9 1.3 1.7 1.3.9 0 1.5-.5 1.8-1.3l8.2-24.6c.2-.9-.4-1.9-1.3-2.2zm3.7-6c-.3-.7-1-1.2-1.8-1.2-.2 0-.4 0-.6.1-.9.4-1.3 1.4-1 2.4l11.2 31.8c.3.7 1 1.2 1.8 1.2.2 0 .4 0 .6-.1.9-.4 1.3-1.4 1-2.4l-11.2-31.8zm21.8-.2c-.2-.5-.6-.8-1.1-.9-.9-.3-2 .3-2.3 1.2l-8.2 25.3c-.3 1 .3 2.1 1.2 2.4.2.1.3.1.5.1.8 0 1.6-.5 1.8-1.3l8.2-25.3c.2-.5.1-1-.1-1.5zm77.2 15.1c1 0 1.9-.8 1.9-1.9v-26.1c0-1-.8-1.9-1.9-1.9-1 0-1.9.8-1.9 1.9v26.1c0 1.1.8 1.9 1.9 1.9zm2.1 0l-3.3 2.8c-.4.3-.7.9-.7 1.4v12.8c0 1 .8 1.9 1.9 1.9 1 0 1.9-.8 1.9-1.9v-11.9l2.7-2.3c.8-.7.9-1.8.2-2.6-.7-.7-1.9-.8-2.7-.2zm22.2 15.9l-13.4-15.4-1.9-1.6v-.2l2.6-1.6 11.9-10c.8-.7.9-1.9.2-2.7-.6-.7-1.9-.8-2.6-.2l-15.4 12.9c-.4.3-.6.8-.6 1.3s.1 1 .4 1.3l16 18.5c.4.4.9.6 1.4.6.5 0 .9-.2 1.2-.4.7-.5.8-1.7.2-2.5zm23.2 38.1h3.7v24.8c0 .9.9 1.8 1.8 1.8 1 0 1.9-.9 1.9-1.8v-26.6c0-1-.8-1.8-1.9-1.8h-5.5c-.9 0-1.8.8-1.8 1.8 0 .9.8 1.8 1.8 1.8zm5.5-8.5c1 0 1.9-.9 1.9-1.8v-5.3c0-.9-.9-1.8-1.9-1.8-1 0-1.8.9-1.8 1.8v5.3c-.1 1 .8 1.8 1.8 1.8zm16.3 11.4c2.5-2.3 6.2-3.6 10-3.6 4.8 0 8.4 1.9 9.9 5.2.3.7 1 1.1 1.7 1.1.3 0 .5-.1.8-.2.4-.2.8-.6.9-1 .2-.5.2-1-.1-1.4-2.2-4.6-7-7.2-13.2-7.2-4.7 0-9.3 1.7-12.4 4.5-.4.3-.6.8-.6 1.3s.1.9.4 1.3c.7.6 1.9.7 2.6 0zm-182.3-.8c2.6-2 4.4-2.9 7.8-2.9 5.1 0 10.4 3.6 10.9 9.1.1 1 .8 1.8 1.8 1.8s1.9-.8 1.9-1.8c-.4-7.1-7-12.7-14.6-12.7-4.5 0-7.1 1.3-10 3.5-.8.6-.9 1.7-.3 2.6.5.8 1.6 1 2.5.4zm65.9-6.9c1 0 1.9-.8 1.9-1.8v-8.9c0-1-.8-1.9-1.9-1.9-1 0-1.8.8-1.8 1.9v8.9c-.1 1 .8 1.8 1.8 1.8zm33.4.5c-9.4 0-16.1 6.3-16.8 15.4-.1.4.1.9.4 1.3.3.4.8.7 1.3.7h.2c.9 0 1.7-.8 1.8-1.8.7-7.2 5.7-12 13.1-12 8 0 13.2 5.6 13.2 14.1 0 8.9-5.3 14.9-13.2 14.9-7.4 0-12.5-4.9-13.2-12.5-.1-1-.9-1.7-1.8-1.7h-.2c-.5 0-1 .3-1.3.7-.3.4-.4.8-.4 1.2.6 9.3 7.3 15.8 16.9 15.8 10.1 0 16.9-7.4 16.9-18.5 0-10.6-6.6-17.6-16.9-17.6zm-22.2 32h-4c-3.7 0-5.4-.6-5.4-4.2v-25.3c0-1-.8-1.9-1.9-1.9h-7.2c-1 0-1.8.8-1.8 1.8s.8 1.8 1.8 1.8h5.4v23.6c0 6.4 3.6 7.8 9.1 7.8h4c1 0 1.8-.8 1.8-1.8s-.8-1.8-1.8-1.8zm.4-31.3h-6.7c-1 0-1.8.8-1.8 1.9 0 .9.8 1.7 1.8 1.7h6.7c1 0 1.9-.8 1.9-1.8-.1-1-.9-1.8-1.9-1.8zm72.8 14.8c-1 0-1.9.8-1.9 1.8v16.8c0 1 .8 1.9 1.9 1.9 1 0 1.8-.8 1.8-1.9v-16.7c.1-1-.8-1.9-1.8-1.9zm-24.9-15.2c-1 0-1.8.8-1.8 1.9v31.9c0 1 .8 1.9 1.8 1.9s1.8-.8 1.8-1.9v-31.9c.1-1-.8-1.9-1.8-1.9zm78.8 10.8c-1 0-1.9.8-1.9 1.9v9.9c-.4 9.3-12 9.3-12 9.3-5 0-7.6-2.8-7.6-5.5 0-4.1 2-6.1 6.1-7l11.1-2.3c.5-.1.9-.4 1.2-.8.3-.4.4-.9.3-1.4-.2-.8-1-1.5-1.9-1.5h-.3l-11.4 2.5c-5.7 1.3-8.8 4.9-8.8 10.5 0 4.4 3.5 9.1 11.3 9.1 0 0 4.5.3 8.9-2.2.6-.3 1.2-.7 1.9-1.3.2-.2.4-.3.6-.5l.7-1.2-.1 1.2v2.3c0 1 .8 1.9 1.9 1.9 1 0 1.8-.8 1.8-1.9v-21.1c.1-1.1-.7-1.9-1.8-1.9zm-32.5 20.9h-11.3c-1 0-1.8.8-1.8 1.8s.8 1.8 1.8 1.8h11.3c.9 0 1.8-.8 1.8-1.8-.1-1-.9-1.8-1.8-1.8zm-33.1-31.3h-1.6c-.3 0-.6.1-.8.2l-7 3.7c-.5.2-.8.6-.9 1.1-.2.5-.1 1 .1 1.4.4.8 1.4 1.2 2.5.7l6.6-3.6h1.2c6.2 0 9.8 3.1 9.8 8.2 0 1 .8 1.9 1.9 1.9 1 0 1.8-.8 1.8-1.9 0-7.2-5.2-11.7-13.6-11.7zm-85.6 27c-.2-.3-.6-.5-.9-.6-1.5-.4-2.2.9-2.3 1.1v.1c-.5 1-2 3.1-5.2 3.9-1 .2-2.2.4-3.6.4-4.4 0-9-2.1-10.1-4.6-.3-.7-1-1.1-1.7-1.1-.3 0-.5.1-.7.2-.1 0-.2.1-.3.2-1 .7-.8 1.7-.6 2.2 1.7 3.7 7.7 6.8 13.4 6.8 7.8 0 11.4-3.6 12.4-6.8.1-.3.2-.7 0-1.2-.2-.2-.3-.4-.4-.6zm-11.5-27.7c-6.3 0-12.3 3.5-12.7 7.5-.1.5 0 .9.3 1.3s.7.5 1.2.6h.3c1 0 1.4-.8 1.9-1.6.9-1.7 3.8-4.2 9-4.2 3.9 0 7.3 1.4 8.8 3.7.6.9 1.8 1.1 2.6.6.8-.6 1.1-1.7.5-2.5-2.1-3.4-6.7-5.4-11.9-5.4zm-23.2 28.2c-2.6 2.8-6.4 4.4-10.4 4.4-6.6 0-13.7-4.6-13.7-14.6 0-2.9.8-6.8 2.7-8.7.3-.3.6-.8.6-1.2 0-.5-.2-1-.5-1.4-.6-.7-1.9-.7-2.6 0-2.6 2.6-3.9 7.6-3.9 11.3 0 12.5 9 18.2 17.4 18.2 5 0 9.8-2 13.1-5.5.7-.8.6-1.9-.1-2.7-.6-.5-1.8-.5-2.6.2zm24.7-11l-4-1.4c-1.5-.6-5.8-2.2-6.6-4.1-.3-.8-.9-1.4-1.7-1.4-.2 0-.3 0-.5.1-.5.1-.9.4-1.1.9-.2.4-.3.9-.2 1.4.7 2.8 5.2 5.3 8.8 6.6l4 1.4c.7.3 1.5.5 2.1.8 3.1 1 5.4 1.9 6.2 3.7.3.7 1 1.1 1.8 1.1.2 0 .5 0 .7-.1.9-.4 1.4-1.5 1-2.5-1.2-3.1-5.3-4.6-10.5-6.5z" class="st1"/>
    <path fill="#ffffff" d="M31.509018 95.000001h-23.3c-1 0-1.9.8-1.9 1.8s.8 1.8 1.9 1.8h23.3c1 0 1.8-.8 1.8-1.8.1-1-.8-1.8-1.8-1.8z" class="st1"/>
  </g>
</svg>
